<?xml version="1.0" encoding="UTF-8" standalone="no"?>
<!DOCTYPE svg PUBLIC "-//W3C//DTD SVG 1.1//EN"
 "http://www.w3.org/Graphics/SVG/1.1/DTD/svg11.dtd">
<!-- Generated by graphviz version 2.43.0 (0)
 -->
<!-- Title: %3 Pages: 1 -->
<svg width="341pt" height="125pt"
 viewBox="0.00 0.00 340.59 125.00" xmlns="http://www.w3.org/2000/svg" xmlns:xlink="http://www.w3.org/1999/xlink">
<g id="graph0" class="graph" transform="scale(1 1) rotate(0) translate(4 121)">
<title>%3</title>
<polygon fill="white" stroke="transparent" points="-4,4 -4,-121 336.59,-121 336.59,4 -4,4"/>
<!-- w -->
<g id="node1" class="node">
<title>w</title>
<ellipse fill="none" stroke="black" cx="18" cy="-99" rx="18" ry="18"/>
<text text-anchor="middle" x="18" y="-95.3" font-family="Times,serif" font-size="14.00">w</text>
</g>
<!-- mul -->
<g id="node3" class="node">
<title>mul</title>
<ellipse fill="none" stroke="white" cx="92.15" cy="-72" rx="20.3" ry="20.3"/>
<text text-anchor="middle" x="92.15" y="-68.3" font-family="Times,serif" font-size="14.00">✕</text>
</g>
<!-- w&#45;&gt;mul -->
<g id="edge1" class="edge">
<title>w&#45;&gt;mul</title>
<path fill="none" stroke="black" d="M35.01,-93.01C43.39,-89.87 53.89,-85.94 63.54,-82.33"/>
<polygon fill="black" stroke="black" points="65.01,-85.52 73.15,-78.73 62.56,-78.96 65.01,-85.52"/>
</g>
<!-- x -->
<g id="node2" class="node">
<title>x</title>
<ellipse fill="none" stroke="black" cx="18" cy="-45" rx="18" ry="18"/>
<text text-anchor="middle" x="18" y="-41.3" font-family="Times,serif" font-size="14.00">x</text>
</g>
<!-- x&#45;&gt;mul -->
<g id="edge2" class="edge">
<title>x&#45;&gt;mul</title>
<path fill="none" stroke="black" d="M35.01,-50.99C43.39,-54.13 53.89,-58.06 63.54,-61.67"/>
<polygon fill="black" stroke="black" points="62.56,-65.04 73.15,-65.27 65.01,-58.48 62.56,-65.04"/>
</g>
<!-- a -->
<g id="node4" class="node">
<title>a</title>
<ellipse fill="none" stroke="black" cx="166.3" cy="-72" rx="18" ry="18"/>
<text text-anchor="middle" x="166.3" y="-68.3" font-family="Times,serif" font-size="14.00">a</text>
</g>
<!-- mul&#45;&gt;a -->
<g id="edge3" class="edge">
<title>mul&#45;&gt;a</title>
<path fill="none" stroke="black" d="M112.48,-72C120.23,-72 129.3,-72 137.72,-72"/>
<polygon fill="black" stroke="black" points="137.88,-75.5 147.88,-72 137.88,-68.5 137.88,-75.5"/>
</g>
<!-- add -->
<g id="node6" class="node">
<title>add</title>
<ellipse fill="none" stroke="white" cx="240.44" cy="-45" rx="20.3" ry="20.3"/>
<text text-anchor="middle" x="240.44" y="-41.3" font-family="Times,serif" font-size="14.00">＋</text>
</g>
<!-- a&#45;&gt;add -->
<g id="edge4" class="edge">
<title>a&#45;&gt;add</title>
<path fill="none" stroke="black" d="M183.31,-66.01C191.69,-62.87 202.19,-58.94 211.83,-55.33"/>
<polygon fill="black" stroke="black" points="213.31,-58.52 221.45,-51.73 210.86,-51.96 213.31,-58.52"/>
</g>
<!-- b -->
<g id="node5" class="node">
<title>b</title>
<ellipse fill="none" stroke="black" cx="166.3" cy="-18" rx="18" ry="18"/>
<text text-anchor="middle" x="166.3" y="-14.3" font-family="Times,serif" font-size="14.00">b</text>
</g>
<!-- b&#45;&gt;add -->
<g id="edge5" class="edge">
<title>b&#45;&gt;add</title>
<path fill="none" stroke="black" d="M183.31,-23.99C191.69,-27.13 202.19,-31.06 211.83,-34.67"/>
<polygon fill="black" stroke="black" points="210.86,-38.04 221.45,-38.27 213.31,-31.48 210.86,-38.04"/>
</g>
<!-- y -->
<g id="node7" class="node">
<title>y</title>
<ellipse fill="none" stroke="black" cx="314.59" cy="-45" rx="18" ry="18"/>
<text text-anchor="middle" x="314.59" y="-41.3" font-family="Times,serif" font-size="14.00">y</text>
</g>
<!-- add&#45;&gt;y -->
<g id="edge6" class="edge">
<title>add&#45;&gt;y</title>
<path fill="none" stroke="black" d="M260.78,-45C268.53,-45 277.6,-45 286.02,-45"/>
<polygon fill="black" stroke="black" points="286.18,-48.5 296.18,-45 286.18,-41.5 286.18,-48.5"/>
</g>
</g>
</svg>